<svg width="24" height="24" viewBox="0 0 24 24" fill="none" xmlns="http://www.w3.org/2000/svg">
<path d="M11.25 4C11.25 3.58579 11.5858 3.25 12 3.25C12.4142 3.25 12.75 3.58579 12.75 4V13.1893L15.4697 10.4697C15.7626 10.1768 16.2374 10.1768 16.5303 10.4697C16.8232 10.7626 16.8232 11.2374 16.5303 11.5303L12.5303 15.5303C12.2374 15.8232 11.7626 15.8232 11.4697 15.5303L7.46967 11.5303C7.17678 11.2374 7.17678 10.7626 7.46967 10.4697C7.76256 10.1768 8.23744 10.1768 8.53033 10.4697L11.25 13.1893V4Z" fill="#212121"/>
<path d="M4 15.25C4.41421 15.25 4.75 15.5858 4.75 16V18.25C4.75 18.9404 5.30964 19.5 6 19.5H18C18.6904 19.5 19.25 18.9404 19.25 18.25V16C19.25 15.5858 19.5858 15.25 20 15.25C20.4142 15.25 20.75 15.5858 20.75 16V18.25C20.75 19.7688 19.5188 21 18 21H6C4.48122 21 3.25 19.7688 3.25 18.25V16C3.25 15.5858 3.58579 15.25 4 15.25Z" fill="#212121"/>
</svg>
