<svg width="24" height="24" viewBox="0 0 24 24" fill="none" xmlns="http://www.w3.org/2000/svg">
<path d="M10.75 3.25C14.8921 3.25 18.25 6.60786 18.25 10.75C18.25 12.5554 17.6122 14.2118 16.5501 15.5066L20.5303 19.4697C20.8245 19.7627 20.8254 20.2376 20.5323 20.5318C20.2393 20.826 19.7644 20.8268 19.4702 20.5338L15.4892 16.5695C14.1986 17.624 12.5481 18.25 10.75 18.25C6.60786 18.25 3.25 14.8921 3.25 10.75C3.25 6.60786 6.60786 3.25 10.75 3.25ZM10.75 4.75C7.43629 4.75 4.75 7.43629 4.75 10.75C4.75 14.0637 7.43629 16.75 10.75 16.75C14.0637 16.75 16.75 14.0637 16.75 10.75C16.75 7.43629 14.0637 4.75 10.75 4.75Z" fill="#212121"/>
</svg>
